<svg width="71" height="50" viewBox="0 0 71 50" fill="none" xmlns="http://www.w3.org/2000/svg">
<path d="M70.6146 0H0V50H70.6146V0Z" fill="black"/>
<path d="M17.3586 49.3741H2.85352V50H17.3586V49.3741Z" fill="#C7DB09"/>
<path d="M34.1992 49.3741H19.6941V50H34.1992V49.3741Z" fill="white"/>
<path d="M51.0402 49.3741H36.5352V50H51.0402V49.3741Z" fill="white"/>
<path d="M67.8811 49.3741H53.376V50H67.8811V49.3741Z" fill="white"/>
<path d="M67.7975 42.8023H42.9116V47.5226H67.7975V42.8023Z" fill="white"/>
<path d="M40.9098 42.8023H36.1873V47.5226H40.9098V42.8023Z" fill="#C7DB09"/>
<path d="M34.1905 42.8023H29.468V47.5226H34.1905V42.8023Z" fill="#C7DB09"/>
<path d="M27.4712 42.8023H2.58105V47.5226H27.4712V42.8023Z" fill="white"/>
<path d="M48.632 22.6469H42.0859V29.1899H48.632V22.6469Z" fill="#C7DB09"/>
<path d="M34.1923 2.49077H29.4663V7.21107H34.1923V2.49077Z" fill="#C7DB09"/>
<path d="M34.1923 9.20682V20.65H2.58203V15.9264H22.7436V13.9306H2.58203V2.49077H27.4696V7.21107H7.30453V9.20682H27.4696V15.9264H22.7471V15.0297H27.4696V15.9264H29.4663V9.20682H34.1923Z" fill="white"/>
<path d="M49.6294 22.6469V34.087H63.075V36.0827H40.9135V22.6464H36.1875V36.0827H34.1908V22.6464H9.29975V36.0827H7.30307V22.6464H2.58057V40.8061H67.7975V22.6469H49.6294ZM16.0227 36.0832H14.026V27.3672H16.0227V36.0832ZM22.7454 36.0832H20.7487V27.3672H22.7454V36.0832ZM29.4648 36.0832H27.4681V27.3672H29.4648V36.0832ZM63.075 29.3636H54.3554V27.3679H63.075V29.3636Z" fill="white"/>
<path d="M40.9296 4.35262V2.65959H36.2036V7.19699H40.9296V5.50397H37.938V4.35262H40.9296Z" fill="#C7DB09"/>
<path d="M47.6327 7.21152V9.20727H67.7975V20.6504H36.1875V9.16296H40.9135V15.9271H63.075V13.9311H42.9102V2.49123H67.7975V7.21152H47.6327Z" fill="white"/>
<path d="M17.3586 0H2.85352V0.625856H17.3586V0Z" fill="white"/>
<path d="M34.1992 0H19.6941V0.625856H34.1992V0Z" fill="white"/>
<path d="M51.0402 0H36.5352V0.625856H51.0402V0Z" fill="white"/>
<path d="M67.8811 0H53.376V0.625856H67.8811V0Z" fill="#C7DB09"/>
</svg>
