<svg width="40" height="25" viewBox="0 0 40 25" fill="none" xmlns="http://www.w3.org/2000/svg">
<g clip-path="url(#clip0_313_1202)">
<path d="M39.6552 2.25H0V22.25H39.6552V2.25Z" fill="#F6F6F6"/>
<path fill-rule="evenodd" clip-rule="evenodd" d="M36.681 2.52867e-07C34.6983 4.41611e-07 13.706 -4.00796e-07 1.98276 2.52867e-07C0.991379 3.08144e-07 0 1 0 2V5H39.6552C39.6552 5 39.6552 9.64299 39.6552 3C39.6552 1 38.6638 2.52867e-07 36.681 2.52867e-07Z" fill="#265697"/>
<path fill-rule="evenodd" clip-rule="evenodd" d="M0 20C0 20 2.39511e-07 20 0 22C-1.14712e-07 24 0.991379 25 2.97414 25C14.0338 25 34.6983 25 36.681 25C38.6638 25 39.6552 24 39.6552 22V20H0Z" fill="#D97B16"/>
<path fill-rule="evenodd" clip-rule="evenodd" d="M27.6631 7.44553C27.1073 7.23062 26.2365 7 25.1489 7C22.3771 7 20.4246 8.43878 20.4079 10.5007C20.3923 12.0249 21.8018 12.8752 22.8659 13.3827C23.9578 13.9026 24.3249 14.2342 24.3197 14.6985C24.3128 15.4095 23.4477 15.7344 22.6414 15.7344C21.5186 15.7344 20.9221 15.5736 20.0008 15.1776L19.6393 15.009L19.2456 17.3836C19.9008 17.6797 21.1124 17.9363 22.3704 17.9496C25.3192 17.9496 27.2335 16.5273 27.2553 14.3254C27.2659 13.1187 26.5184 12.2003 24.9001 11.4433C23.9195 10.9526 23.319 10.6251 23.3254 10.1282C23.3254 9.6873 23.8337 9.21582 24.9319 9.21582C25.8492 9.20114 26.5137 9.40732 27.0315 9.62223L27.2828 9.74464L27.6631 7.44553Z" fill="#265697"/>
<path fill-rule="evenodd" clip-rule="evenodd" d="M34.8565 7.19434H32.6888C32.0174 7.19434 31.5148 7.38323 31.2199 8.07401L27.0537 17.7954H29.9994C29.9994 17.7954 30.4811 16.4883 30.59 16.2013C30.9119 16.2013 33.7736 16.2058 34.1826 16.2058C34.2666 16.5772 34.5239 17.7954 34.5239 17.7954H37.1269L34.8565 7.19434ZM31.3973 14.0316C31.6293 13.4204 32.515 11.0662 32.515 11.0662C32.4984 11.0945 32.7452 10.4521 32.8869 10.0538L33.0765 10.9684C33.0765 10.9684 33.6136 13.5005 33.7259 14.0315L31.3973 14.0316Z" fill="#265697"/>
<path fill-rule="evenodd" clip-rule="evenodd" d="M14.6848 17.7924L16.4387 7.18457H19.244L17.4889 17.7924H14.6848Z" fill="#265697"/>
<path fill-rule="evenodd" clip-rule="evenodd" d="M12.3319 7.19189L9.58544 14.4256L9.29282 12.9556C8.78154 11.261 7.18858 9.42495 5.40771 8.50577L7.91898 17.7828L10.887 17.7793L15.3033 7.19189H12.3319Z" fill="#265697"/>
<path fill-rule="evenodd" clip-rule="evenodd" d="M7.03776 7.18555H2.51432L2.47852 7.40625C5.99771 8.2843 8.32633 10.4062 9.29294 12.9558L8.30935 8.0811C8.13954 7.40939 7.64704 7.20896 7.03776 7.18555Z" fill="#D97B16"/>
</g>
<defs>
<clipPath id="clip0_313_1202">
<rect width="39.6552" height="25" fill="white"/>
</clipPath>
</defs>
</svg>
