<svg width="40" height="25" viewBox="0 0 40 25" fill="none" xmlns="http://www.w3.org/2000/svg">
<g clip-path="url(#clip0_314_1220)">
<path fill-rule="evenodd" clip-rule="evenodd" d="M37 2.52867e-07C35 4.41611e-07 13.8252 -4.00796e-07 2 2.52867e-07C1 3.08144e-07 0 1 0 2V22C-1.1575e-07 24 1 25 3 25C14.1558 25 35 25 37 25C39 25 40 24 40 22V3C40 1 39 2.52867e-07 37 2.52867e-07Z" fill="#265697"/>
<path fill-rule="evenodd" clip-rule="evenodd" d="M37.3864 12.625C37.388 18.4344 32.73 23.1448 26.9825 23.1464C21.2348 23.1478 16.5748 18.4398 16.5732 12.6303V12.625C16.5717 6.81567 21.2298 2.10506 26.9771 2.10352C32.7247 2.10197 37.3849 6.81021 37.3864 12.6197V12.625Z" fill="#DFAC16"/>
<path fill-rule="evenodd" clip-rule="evenodd" d="M12.9531 2.10601C7.23963 2.14269 2.61353 6.84108 2.61353 12.6248C2.61353 18.431 7.27569 23.1434 13.0202 23.1434C15.7162 23.1434 18.1737 22.1049 20.023 20.4027C20.0229 20.4027 20.0226 20.4025 20.0222 20.4023H20.0244C20.403 20.0535 20.7562 19.6771 21.0808 19.2759H18.9488C18.6641 18.9283 18.4053 18.5661 18.1729 18.1924H21.85C22.0736 17.8307 22.2761 17.455 22.4558 17.066H17.5658C17.3991 16.7049 17.2544 16.3356 17.1309 15.9609H22.8912C23.2384 14.9124 23.4268 13.7907 23.4268 12.6246C23.4268 11.8516 23.3439 11.0978 23.1869 10.3721H16.8254C16.9042 9.99866 17.0037 9.6297 17.1223 9.26714H22.8848C22.7559 8.88132 22.6063 8.50535 22.4361 8.14089H17.5652C17.7409 7.76148 17.94 7.39239 18.1623 7.03601H21.8367C21.5922 6.64223 21.3216 6.26602 21.029 5.90964H18.9804C19.2971 5.53284 19.6458 5.178 20.0244 4.84714C18.175 3.14477 15.7168 2.10601 13.0202 2.10601C12.9977 2.10601 12.9755 2.10589 12.9531 2.10601Z" fill="#BF3126"/>
<path fill-rule="evenodd" clip-rule="evenodd" d="M16.7623 15.303L16.901 14.3511C16.8253 14.3511 16.7138 14.3838 16.6155 14.3838C16.2298 14.3838 16.1873 14.1766 16.2118 14.0233L16.5234 12.0809H17.1096L17.2511 11.0279H16.6984L16.8109 10.373H15.7029C15.6785 10.3977 15.0488 14.0559 15.0488 14.5014C15.0488 15.1608 15.4152 15.4545 15.9317 15.4498C16.3362 15.4463 16.6512 15.3332 16.7623 15.303Z" fill="white"/>
<path fill-rule="evenodd" clip-rule="evenodd" d="M17.1135 13.4882C17.1135 15.0709 18.1471 15.447 19.0276 15.447C19.8404 15.447 20.198 15.2634 20.198 15.2634L20.3932 14.1832C20.3932 14.1832 19.7749 14.4585 19.2166 14.4585C18.0268 14.4585 18.2352 13.5618 18.2352 13.5618H20.4869C20.4869 13.5618 20.6323 12.8361 20.6323 12.5404C20.6323 11.8025 20.2689 10.9033 19.0524 10.9033C17.9383 10.9036 17.1135 12.1169 17.1135 13.4882ZM19.0566 11.9063C19.6819 11.9063 19.5666 12.6166 19.5666 12.6741H18.3364C18.3364 12.6007 18.4527 11.9063 19.0566 11.9063Z" fill="white"/>
<path fill-rule="evenodd" clip-rule="evenodd" d="M26.0729 15.3027L26.2711 14.0818C26.2711 14.0818 25.7274 14.3573 25.3543 14.3573C24.5683 14.3573 24.2531 13.7507 24.2531 13.0989C24.2531 11.7768 24.9294 11.0494 25.6822 11.0494C26.2468 11.0494 26.6999 11.3698 26.6999 11.3698L26.8808 10.1835C26.8808 10.1835 26.2089 9.90869 25.6329 9.90869C24.3538 9.90869 23.1094 11.0303 23.1094 13.1368C23.1094 14.5336 23.7813 15.4561 25.1036 15.4561C25.4774 15.4562 26.0729 15.3027 26.0729 15.3027Z" fill="white"/>
<path fill-rule="evenodd" clip-rule="evenodd" d="M10.6684 10.9204C9.90859 10.9204 9.32616 11.1672 9.32616 11.1672L9.16537 12.132C9.16537 12.132 9.64609 11.9346 10.3728 11.9346C10.7854 11.9346 11.0872 11.9815 11.0872 12.3204C11.0872 12.5263 11.0502 12.6022 11.0502 12.6022C11.0502 12.6022 10.7248 12.5747 10.5741 12.5747C9.61579 12.5747 8.60913 12.9881 8.60913 14.2343C8.60913 15.2164 9.26955 15.4417 9.67886 15.4417C10.4606 15.4417 10.7976 14.9289 10.8155 14.9274L10.779 15.3554H11.7547L12.1899 12.271C12.1899 10.9626 11.0607 10.9204 10.6684 10.9204ZM10.9057 13.4317C10.9269 13.6201 10.7889 14.5032 10.1218 14.5032C9.77764 14.5032 9.68814 14.2375 9.68814 14.0804C9.68814 13.7738 9.85292 13.4058 10.6649 13.4058C10.8537 13.4061 10.8739 13.4265 10.9057 13.4317Z" fill="white"/>
<path fill-rule="evenodd" clip-rule="evenodd" d="M13.2267 15.4196C13.4763 15.4196 14.9031 15.4837 14.9031 13.9956C14.9031 12.6043 13.5824 12.8792 13.5824 12.3203C13.5824 12.042 13.7976 11.9544 14.1911 11.9544C14.3473 11.9544 14.9483 12.0046 14.9483 12.0046L15.0881 11.0157C15.0881 11.0158 14.6991 10.9277 14.0658 10.9277C13.2461 10.9277 12.4141 11.2585 12.4141 12.3901C12.4141 13.6723 13.8014 13.5436 13.8014 14.0838C13.8014 14.4443 13.4138 14.4736 13.1151 14.4736C12.5982 14.4736 12.1328 14.2944 12.1312 14.3029L11.9834 15.2818C12.0102 15.2902 12.2972 15.4196 13.2267 15.4196Z" fill="white"/>
<path fill-rule="evenodd" clip-rule="evenodd" d="M35.251 10.033L35.012 11.532C35.012 11.532 34.5949 10.9497 33.942 10.9497C32.9268 10.9497 32.0806 12.187 32.0806 13.6086C32.0806 14.5263 32.5319 15.4254 33.4546 15.4254C34.1183 15.4254 34.4863 14.9577 34.4863 14.9577L34.4375 15.3572H35.5153L36.3617 10.0312L35.251 10.033ZM34.7365 12.9558C34.7365 13.5474 34.4467 14.3375 33.846 14.3375C33.4472 14.3375 33.2603 13.9992 33.2603 13.4682C33.2603 12.5999 33.6462 12.027 34.133 12.027C34.5319 12.0269 34.7365 12.3038 34.7365 12.9558Z" fill="white"/>
<path fill-rule="evenodd" clip-rule="evenodd" d="M4.66891 15.3618L5.34342 11.341L5.44243 15.3618H6.20585L7.62993 11.341L6.99911 15.3618H8.13344L9.00703 10.0288H7.25292L6.16052 13.301L6.10367 10.0288H4.48674L3.60059 15.3618H4.66891Z" fill="white"/>
<path fill-rule="evenodd" clip-rule="evenodd" d="M21.7404 15.3691C22.0629 13.5153 22.1227 12.01 22.8923 12.2855C23.0271 11.568 23.1571 11.2904 23.3041 10.9868C23.3041 10.9868 23.2352 10.9722 23.0905 10.9722C22.5943 10.9722 22.2266 11.6574 22.2266 11.6574L22.3254 11.0281H21.2937L20.6025 15.3691H21.7404Z" fill="white"/>
<path fill-rule="evenodd" clip-rule="evenodd" d="M28.6297 10.9204C27.8699 10.9204 27.2875 11.1672 27.2875 11.1672L27.1268 12.132C27.1268 12.132 27.6075 11.9346 28.3342 11.9346C28.7468 11.9346 29.0484 11.9815 29.0484 12.3204C29.0484 12.5263 29.0116 12.6022 29.0116 12.6022C29.0116 12.6022 28.6862 12.5747 28.5354 12.5747C27.5772 12.5747 26.5706 12.9881 26.5706 14.2343C26.5706 15.2164 27.2309 15.4417 27.6402 15.4417C28.4219 15.4417 28.7589 14.9289 28.7767 14.9274L28.7404 15.3554H29.7161L30.1512 12.271C30.1514 10.9626 29.022 10.9204 28.6297 10.9204ZM28.8674 13.4317C28.8885 13.6201 28.7504 14.5032 28.0831 14.5032C27.7389 14.5032 27.6497 14.2375 27.6497 14.0804C27.6497 13.7738 27.8145 13.4058 28.6263 13.4058C28.8151 13.4061 28.8352 13.4265 28.8674 13.4317Z" fill="white"/>
<path fill-rule="evenodd" clip-rule="evenodd" d="M31.043 15.3691C31.3656 13.5153 31.4254 12.01 32.1948 12.2855C32.3298 11.568 32.4599 11.2904 32.6069 10.9868C32.6069 10.9868 32.5379 10.9722 32.3932 10.9722C31.897 10.9722 31.5294 11.6574 31.5294 11.6574L31.6281 11.0281H30.5965L29.9053 15.3691H31.043Z" fill="white"/>
</g>
<defs>
<clipPath id="clip0_314_1220">
<rect width="40" height="25" fill="white"/>
</clipPath>
</defs>
</svg>
