<svg width="40" height="25" viewBox="0 0 40 25" fill="none" xmlns="http://www.w3.org/2000/svg">
<path fill-rule="evenodd" clip-rule="evenodd" d="M37 2.52867e-07C35 4.41611e-07 13.8252 -4.00796e-07 2 2.52867e-07C1 3.08144e-07 0 1 0 2V22C-1.1575e-07 24 1 25 3 25C14.1558 25 35 25 37 25C39 25 40 24 40 22V3C40 1 39 2.52867e-07 37 2.52867e-07Z" fill="#F6F6F6"/>
<path fill-rule="evenodd" clip-rule="evenodd" d="M37.9412 8.36426H36.8911C36.8905 8.36426 36.8899 8.36445 36.8895 8.36445L36.8889 8.36426C36.6486 8.36426 36.4046 8.54353 36.3365 8.7716C36.3338 8.78083 36.329 8.78967 36.3269 8.79927C36.3269 8.79927 36.3018 8.91053 36.2584 9.10286L34.816 15.4686C34.7826 15.6125 34.7603 15.7063 34.7536 15.7307L34.7564 15.7342C34.7064 15.9567 34.8438 16.1407 35.0694 16.1613L35.0723 16.1655H36.1623C36.4011 16.1655 36.6434 15.988 36.7137 15.7628C36.717 15.7518 36.7224 15.7417 36.7249 15.7307L38.2984 8.79889L38.296 8.79812C38.3495 8.56101 38.1926 8.36426 37.9412 8.36426ZM32.555 14.6206C32.4093 14.71 32.2554 14.7865 32.0942 14.8516C31.8775 14.9367 31.6721 14.9813 31.482 14.9813C31.1903 14.9813 30.9661 14.9411 30.8146 14.8552C30.6628 14.7738 30.5833 14.6322 30.5858 14.4294C30.5858 14.1954 30.6413 14.0138 30.7562 13.8715C30.8718 13.7345 31.0437 13.6242 31.2568 13.5419C31.4688 13.472 31.7295 13.4143 32.0304 13.373C32.298 13.3402 32.8271 13.2808 32.8948 13.2804C32.9625 13.2798 33.0075 13.2435 32.9773 13.4191C32.9639 13.4954 32.8111 14.1061 32.7411 14.3837C32.7208 14.4669 32.6071 14.5882 32.555 14.6206ZM34.6315 10.3289C34.1859 10.0868 33.4888 9.96438 32.5351 9.96438C32.0634 9.96438 31.5894 10.0013 31.1138 10.0731C30.7646 10.1252 30.7287 10.1339 30.5118 10.1798C30.0656 10.2743 29.9968 10.7093 29.9968 10.7093L29.8535 11.2831C29.7722 11.6501 29.9869 11.6349 30.0826 11.6065C30.2774 11.5492 30.383 11.4923 30.7804 11.4047C31.1603 11.3207 31.5617 11.2579 31.882 11.2604C32.3517 11.2604 32.7089 11.3106 32.9463 11.407C33.1839 11.5079 33.3016 11.6797 33.3016 11.9254C33.3024 11.9838 33.3039 12.039 33.2822 12.0872C33.2627 12.1322 33.2252 12.1756 33.1129 12.1904C32.4425 12.2292 31.9614 12.2888 31.3819 12.371C30.8102 12.4494 30.3099 12.5837 29.8918 12.7697C29.446 12.9622 29.1124 13.2199 28.8825 13.5463C28.6587 13.8743 28.5462 14.2715 28.5457 14.7394C28.5457 15.1815 28.7089 15.5422 29.0246 15.8221C29.3441 16.0984 29.7597 16.2352 30.2626 16.2352C30.5768 16.2331 30.8227 16.211 30.9989 16.1682C31.1734 16.1253 31.3636 16.0644 31.5645 15.9797C31.7147 15.9186 31.8767 15.8302 32.0478 15.7193C32.2191 15.6081 32.3377 15.5291 32.4899 15.4321L32.4954 15.4413L32.4526 15.6252C32.4524 15.6269 32.4498 15.6279 32.4498 15.6296L32.4512 15.633C32.4022 15.8546 32.539 16.0389 32.7644 16.0606L32.7671 16.0644H32.7871L32.7879 16.0654C32.9375 16.0654 33.451 16.0652 33.6909 16.0644H33.8585C33.8695 16.0644 33.8707 16.0611 33.8751 16.0586C34.1052 16.0312 34.3258 15.8486 34.3777 15.6296L35.2348 12.0278C35.2545 11.9431 35.2701 11.8453 35.2794 11.7327C35.29 11.6189 35.3027 11.5254 35.2989 11.4577C35.3009 10.948 35.0759 10.5712 34.6315 10.3289ZM29.4704 9.50848C29.3241 9.23141 29.1033 9.00833 28.8241 8.83463C28.5377 8.66131 28.1975 8.54045 27.8036 8.46994C27.414 8.40346 26.9508 8.36541 26.4231 8.36426L23.9677 8.36541C23.7149 8.36964 23.4668 8.56294 23.4084 8.801L21.7576 15.7955C21.6974 16.0331 21.8616 16.2312 22.1099 16.2299L23.288 16.2278C23.5379 16.2299 23.7925 16.0331 23.8515 15.7955L24.2497 14.0981C24.3056 13.8602 24.5595 13.6609 24.8135 13.6644H25.1484C26.5855 13.6644 27.6998 13.3769 28.4976 12.8047C29.2936 12.2296 29.6942 11.4753 29.6942 10.537C29.6916 10.1274 29.62 9.78229 29.4704 9.50848ZM26.9372 11.7962C26.5855 12.0452 26.092 12.1701 25.4569 12.1701H25.1648C24.9122 12.173 24.749 11.9741 24.809 11.7356L25.1611 10.2511C25.2136 10.0163 25.4699 9.81649 25.719 9.81841L26.1048 9.81649C26.5551 9.81841 26.892 9.89181 27.1247 10.0376C27.3534 10.1852 27.4643 10.4141 27.4661 10.719C27.4671 11.1838 27.2905 11.5414 26.9372 11.7962Z" fill="#306FC5"/>
<path fill-rule="evenodd" clip-rule="evenodd" d="M21.2088 9.96441C20.9852 9.96441 20.692 10.1416 20.5532 10.3558C20.5532 10.3558 19.0576 12.8673 18.9107 13.1182C18.8309 13.2532 18.75 13.1674 18.7365 13.1172C18.7256 13.0562 18.273 10.3723 18.273 10.3723C18.2221 10.1563 17.9917 9.97078 17.7035 9.97163L16.7709 9.97301C16.5461 9.97301 16.4059 10.1494 16.4559 10.3625C16.4559 10.3625 17.1688 14.3203 17.3078 15.2512C17.3771 15.766 17.3006 15.8573 17.3006 15.8573L16.3764 17.4356C16.2411 17.6497 16.3152 17.825 16.5389 17.825L17.6196 17.8241C17.8434 17.8241 18.1398 17.6497 18.273 17.4353L22.4304 10.5478C22.4304 10.5478 22.8281 9.95943 22.4613 9.96441C22.2112 9.96785 21.2088 9.96441 21.2088 9.96441ZM13.4034 14.6206C13.2578 14.71 13.1041 14.7861 12.9428 14.8514C12.7261 14.9361 12.5197 14.9811 12.3303 14.9811C12.0394 14.9811 11.8146 14.9407 11.6628 14.8552C11.5113 14.7736 11.4313 14.632 11.4339 14.4291C11.4339 14.1956 11.4899 14.0135 11.6046 13.8713C11.7205 13.7341 11.8916 13.6236 12.1047 13.5415C12.3172 13.4712 12.5787 13.4143 12.8787 13.373C13.1463 13.3402 13.676 13.281 13.7435 13.28C13.8106 13.2798 13.8558 13.2431 13.8256 13.4188C13.8125 13.495 13.6596 14.1061 13.5895 14.3835C13.5684 14.4671 13.4548 14.5883 13.4034 14.6206ZM15.4799 10.3287C15.0343 10.0866 14.3375 9.96438 13.3837 9.96438C12.9118 9.96438 12.438 10.0009 11.9622 10.0729C11.6125 10.1246 11.5774 10.1335 11.3603 10.1794C10.9139 10.2743 10.8452 10.7089 10.8452 10.7089L10.7019 11.2831C10.6208 11.6499 10.8357 11.6347 10.9311 11.6063C11.1254 11.549 11.2316 11.4923 11.6291 11.4043C12.0084 11.3207 12.4104 11.2581 12.7303 11.2602C13.2004 11.2602 13.5572 11.3102 13.7946 11.4066C14.0324 11.5075 14.1494 11.6797 14.1494 11.9252C14.151 11.9836 14.1522 12.039 14.1311 12.0868C14.1111 12.1322 14.0732 12.1754 13.961 12.19C13.2913 12.2294 12.8104 12.2888 12.23 12.371C11.6583 12.4494 11.1582 12.5837 10.7398 12.7695C10.294 12.962 9.96089 13.2201 9.73137 13.5463C9.50679 13.8741 9.3945 14.2713 9.3941 14.7394C9.3941 15.1813 9.55751 15.5422 9.87287 15.8219C10.1926 16.0982 10.6078 16.2352 11.1106 16.2352C11.425 16.2331 11.6707 16.2106 11.8475 16.1682C12.0218 16.1249 12.2122 16.0644 12.4124 15.9797C12.5631 15.9186 12.7248 15.8298 12.8961 15.7191C13.067 15.6081 13.1862 15.5291 13.3389 15.4321L13.3436 15.4411L13.3008 15.6248C13.3004 15.6265 13.2981 15.6277 13.2981 15.6298L13.2998 15.6327C13.2509 15.8548 13.3873 16.0389 13.6128 16.0602L13.6156 16.0644H13.6353L13.6359 16.0658C13.7859 16.0658 14.2996 16.065 14.539 16.0644H14.7067C14.718 16.0644 14.7196 16.0608 14.7231 16.0585C14.9538 16.0302 15.1737 15.8481 15.2262 15.6298L16.0832 12.0276C16.1026 11.9431 16.1184 11.8453 16.1271 11.7329C16.1385 11.6186 16.1509 11.5254 16.1476 11.4579C16.1496 10.9478 15.9242 10.571 15.4799 10.3287ZM10.1188 9.50848C9.97258 9.23141 9.75174 9.00833 9.4725 8.83463C9.18614 8.66131 8.84591 8.54045 8.452 8.46994C8.06244 8.40346 7.59926 8.36541 7.07155 8.36426L4.61614 8.36541C4.36333 8.36964 4.11526 8.56294 4.05685 8.801L2.40603 15.7955C2.34583 16.0331 2.51003 16.2312 2.75829 16.2299L3.93647 16.2278C4.18631 16.2299 4.44089 16.0331 4.4999 15.7955L4.89815 14.0981C4.954 13.8602 5.20798 13.6609 5.46197 13.6644H5.79687C7.23397 13.6644 8.3482 13.3769 9.14608 12.8047C9.94199 12.2296 10.3426 11.4753 10.3426 10.537C10.34 10.1274 10.2684 9.78229 10.1188 9.50848ZM7.58564 11.7962C7.23397 12.0452 6.7404 12.1701 6.10533 12.1701H5.81325C5.56065 12.173 5.39744 11.9741 5.45743 11.7356L5.8095 10.2511C5.862 10.0163 6.11836 9.81649 6.36741 9.81841L6.75323 9.81649C7.20358 9.81841 7.54045 9.89181 7.77313 10.0376C8.00185 10.1852 8.11276 10.4141 8.11454 10.719C8.11553 11.1838 7.9389 11.5414 7.58564 11.7962Z" fill="#265697"/>
</svg>
